<svg xmlns="http://www.w3.org/2000/svg" width="19" height="28" viewBox="0 0 19 28">
    <g fill="none" fill-rule="evenodd">
        <path stroke="#CFCFCF" d="M-50.5-23.5h163v75h-163z"/>
        <path fill="#000" fill-rule="nonzero" d="M9.343 0c-2.994 0-5.36.913-6.951 2.587C.8 4.261.019 6.65.019 9.492c0 1.177.51 3.452.927 4.793-.174.152-.35.25-.519.514a2.783 2.783 0 0 0-.408 1.826c.25 2.176 1.58 2.953 2.02 3.177.17 1.017.682 2.273 1.52 3.557.9 1.376 2.142 2.698 3.652 3.443.028.014.047.042.074.057C7.83 27.527 8.6 28 9.51 28c.91 0 1.68-.473 2.224-1.141.028-.015.046-.043.074-.057 1.506-.747 2.723-2.067 3.615-3.443.83-1.282 1.332-2.544 1.501-3.557.436-.212 1.805-.968 2.057-3.158a2.826 2.826 0 0 0-.426-1.845c-.171-.266-.345-.36-.519-.514.417-1.357.964-3.46.964-5.763 0-1.058-.21-2.506-.908-3.767-.656-1.184-1.842-2.163-3.522-2.282C13.808 1.286 12.16 0 9.343 0zm0 1.217c2.667 0 3.943 1.268 4.393 2.112a.592.592 0 0 0 .519.323c1.448 0 2.247.718 2.799 1.712.551.994.76 2.28.76 3.158 0 2.256-.598 4.477-1.001 5.744a.618.618 0 0 0 .26.704c.101.064.335.255.5.514.164.259.275.57.222 1.027-.227 1.961-1.557 2.34-1.557 2.34a.607.607 0 0 0-.408.513c-.07.673-.565 2.038-1.39 3.31-.825 1.272-1.958 2.485-3.206 3.081a.592.592 0 0 0-.241.21c-.32.49-.862.818-1.483.818-.621 0-1.163-.329-1.483-.818a.592.592 0 0 0-.241-.21c-1.254-.596-2.394-1.809-3.225-3.081-.832-1.272-1.342-2.64-1.409-3.31a.603.603 0 0 0-.39-.494s-1.332-.412-1.556-2.378c-.054-.46.06-.775.222-1.027.162-.252.376-.426.482-.495a.615.615 0 0 0 .26-.723c-.36-1.063-.964-3.975-.964-4.755 0-2.613.704-4.665 2.039-6.068C4.579 2.02 6.58 1.217 9.343 1.217zm4.504 4.642a.512.512 0 0 0-.093.038.636.636 0 0 0-.13.057.274.274 0 0 0-.036.019v.019a.284.284 0 0 0-.093.076.287.287 0 0 0-.019.038.735.735 0 0 0-.074.114v.02a.287.287 0 0 0-.018.037c-.049.095-.283.519-.909 1.046-.7.59-1.811 1.199-3.558 1.199-1.113 0-2.507.01-3.708.456-.6.224-1.16.569-1.575 1.104-.415.535-.649 1.245-.649 2.092a.616.616 0 0 0 .294.535c.186.11.413.11.598 0a.616.616 0 0 0 .294-.535c0-.625.149-1.02.39-1.332.24-.311.597-.551 1.056-.722.918-.34 2.206-.38 3.3-.38 2.02 0 3.44-.724 4.318-1.466.295-.247.517-.494.705-.722.574.948 1.501 2.739 1.501 4.622a.616.616 0 0 0 .294.535c.186.11.413.11.598 0a.616.616 0 0 0 .294-.535c0-3.025-1.784-5.502-2.094-5.916V6.24c-.014-.019-.049-.088-.056-.095a.284.284 0 0 0-.037-.038l-.018-.019a.287.287 0 0 0-.019-.038h-.018a.57.57 0 0 0-.167-.133l-.019-.02a.274.274 0 0 0-.037-.018h-.018a.274.274 0 0 0-.037-.02h-.26z"/>
    </g>
</svg>
