<svg xmlns="http://www.w3.org/2000/svg" width="26" height="28" viewBox="0 0 26 28">
    <g fill="none" fill-rule="evenodd">
        <path stroke="#CFCFCF" d="M-46.5-22.5h163v75h-163z"/>
        <path fill="#000" fill-rule="nonzero" d="M12.072 0C8.874 0 6.173.984 4.276 2.853c-1.897 1.87-2.952 4.604-2.952 7.97 0 1.853.466 3.69.53 5.574.064 1.883-.225 3.787-1.74 5.858a.61.61 0 0 0 .15.856s.68.46 2.025.951c1.306.478 3.305 1.011 6.018 1.313h.018C9.693 27.015 11.25 28 12.83 28c1.585 0 3.153-.994 4.522-2.644 2.727-.304 4.766-.82 6.112-1.294 1.384-.487 2.1-.932 2.1-.932a.605.605 0 0 0 .275-.413.616.616 0 0 0-.123-.48c-1.545-1.995-1.862-3.71-1.836-5.46.026-1.75.455-3.535.455-5.478 0-1.96-.393-4.09-1.476-5.802-1.048-1.652-2.825-2.848-5.28-2.93C16.848 1.822 14.948 0 12.072 0zm0 1.217c2.465 0 4.23 1.722 4.825 2.34.114.121.27.188.435.19 2.224 0 3.598.966 4.504 2.397.906 1.431 1.287 3.367 1.287 5.155 0 1.752-.424 3.528-.455 5.46-.026 1.742.362 3.623 1.684 5.592-.25.135-.387.235-1.286.551-1.086.383-2.668.818-4.769 1.122.935-1.536 2.403-4.474 2.403-8.027 0-4.66-2.658-7.354-3.387-8.008l-.037-.038a.604.604 0 0 0-.398-.266h-.019a.631.631 0 0 0-.189 0h-.038a.656.656 0 0 0-.132.057.77.77 0 0 0-.095.057.575.575 0 0 0-.076.057.284.284 0 0 0-.018.038.282.282 0 0 0-.038.019v.02l-.02.018a.284.284 0 0 0-.018.038l-.019.02v.037l-.019.02v.037l-.019.02s-.717 2.722-4.125 3.785c-1.09.34-2.82.58-4.314 1.312-1.495.732-2.782 2.114-2.782 4.432 0 2.815 1.214 5.027 2.157 6.334-1.94-.297-3.41-.699-4.408-1.065-.878-.32-1.02-.437-1.25-.57 1.323-2.086 1.673-4.128 1.61-5.992-.07-2.05-.53-3.902-.53-5.536 0-3.117.936-5.5 2.573-7.114 1.636-1.614 4.009-2.492 6.963-2.492zm4.9 8.104c.893.946 2.517 3.143 2.517 6.676 0 4.601-2.736 8.213-2.857 8.37a.793.793 0 0 0-.038.057.793.793 0 0 0-.037.057c-1.256 1.576-2.59 2.302-3.728 2.302-1.11 0-2.422-.704-3.652-2.207a.577.577 0 0 0-.057-.076c-.01-.012-.01-.026-.019-.038a.287.287 0 0 0-.038-.038l-.018-.02s-.05-.068-.057-.075a.788.788 0 0 0-.057-.038c-.305-.3-2.763-2.84-2.763-6.639 0-1.902.852-2.737 2.1-3.348 1.25-.61 2.867-.844 4.126-1.236 2.7-.842 4.011-2.665 4.579-3.747z"/>
    </g>
</svg>
