<svg xmlns="http://www.w3.org/2000/svg" width="14" height="14" viewBox="0 0 14 14">
    <path fill="#323297" fill-rule="evenodd" stroke="#323297" stroke-width=".5" d="M6.179 10.804a4.63 4.63 0 0 1-4.643-4.625 4.634 4.634 0 0 1 4.643-4.643 4.63 4.63 0 0 1 4.625 4.643 4.626 4.626 0 0 1-4.625 4.625zm6.732 1.714l-2.893-2.893a5.154 5.154 0 0 0 1.34-3.446A5.182 5.182 0 0 0 6.177 1 5.17 5.17 0 0 0 1 6.179a5.17 5.17 0 0 0 5.179 5.178 5.154 5.154 0 0 0 3.446-1.34l2.893 2.894c.053.053.125.089.196.089.161 0 .286-.125.286-.286a.287.287 0 0 0-.09-.196z"/>
</svg>
